<?xml version="1.0" standalone="no"?>
<!DOCTYPE svg PUBLIC "-//W3C//DTD SVG 20010904//EN"
 "http://www.w3.org/TR/2001/REC-SVG-20010904/DTD/svg10.dtd">
<svg version="1.0" xmlns="http://www.w3.org/2000/svg"
 width="554.000000pt" height="554.000000pt" viewBox="0 0 554.000000 554.000000"
 preserveAspectRatio="xMidYMid meet">

<g transform="translate(0.000000,554.000000) scale(0.100000,-0.100000)"
fill="#000000" stroke="none">
<path d="M71 5495 c-44 -48 -52 -83 -25 -109 33 -33 63 -20 153 69 l86 85 -86
0 -86 0 -42 -45z"/>
<path d="M347 5342 c-189 -189 -210 -217 -189 -248 14 -22 51 -35 70 -25 9 5
120 114 247 240 l230 231 -80 0 -80 0 -198 -198z"/>
<path d="M542 4997 l-542 -542 0 -78 c0 -42 2 -77 5 -77 6 0 1235 1229 1235
1235 0 3 -35 5 -78 5 l-77 0 -543 -543z"/>
<path d="M1192 4977 c-309 -309 -562 -569 -562 -577 0 -9 7 -26 16 -38 38 -54
30 -61 669 578 l600 600 -80 0 -80 0 -563 -563z"/>
<path d="M2131 5299 c-249 -248 -262 -266 -225 -303 40 -41 55 -30 349 264
l280 280 -82 0 -81 0 -241 -241z"/>
<path d="M3102 5437 c-76 -77 -102 -109 -102 -128 0 -34 32 -63 63 -55 17 4
167 146 296 282 2 2 -31 4 -75 4 l-79 0 -103 -103z"/>
<path d="M3327 5052 c-329 -329 -487 -494 -487 -508 0 -33 37 -59 77 -55 6 0
248 237 536 526 l525 525 -81 0 -82 0 -488 -488z"/>
<path d="M4257 5382 c-100 -100 -157 -165 -157 -178 0 -32 24 -56 54 -56 23 0
63 34 225 196 l196 196 -80 0 -80 0 -158 -158z"/>
<path d="M4712 5267 c-149 -150 -272 -280 -272 -288 0 -28 30 -59 58 -59 22 0
84 56 337 310 l310 310 -80 0 -80 0 -273 -273z"/>
<path d="M5278 5153 c-65 -64 -121 -125 -124 -135 -10 -31 22 -68 58 -68 27 0
48 17 145 114 94 95 113 120 113 145 0 30 -29 61 -59 61 -8 0 -67 -53 -133
-117z"/>
<path d="M1867 4454 c-680 -679 -797 -800 -797 -824 0 -34 23 -60 53 -60 15 0
254 232 819 798 439 438 801 805 804 815 9 29 -22 67 -55 67 -24 0 -145 -117
-824 -796z"/>
<path d="M3975 4918 c-43 -24 -2235 -2225 -2235 -2244 0 -11 7 -30 16 -42 39
-56 -5 -96 1181 1091 612 611 1116 1120 1119 1130 8 27 -4 53 -32 65 -29 14
-24 14 -49 0z"/>
<path d="M22 4904 c-20 -13 -22 -24 -22 -97 l0 -81 55 54 c59 58 70 94 39 124
-20 20 -43 20 -72 0z"/>
<path d="M5229 4581 c-163 -163 -301 -307 -308 -319 -9 -17 -9 -27 0 -44 37
-71 50 -62 347 235 l272 272 0 78 c0 42 -3 77 -7 76 -5 0 -141 -134 -304 -298z"/>
<path d="M1502 4667 c-156 -157 -170 -178 -134 -210 40 -37 61 -24 220 136 84
85 152 160 152 168 0 28 -31 59 -58 59 -22 0 -58 -31 -180 -153z"/>
<path d="M3923 3858 c-822 -821 -923 -926 -923 -953 0 -39 16 -55 55 -55 27 0
132 101 953 923 983 983 955 953 900 991 -12 9 -32 16 -43 16 -13 0 -330 -310
-942 -922z"/>
<path d="M1992 4237 c-165 -166 -252 -260 -252 -273 0 -12 8 -28 18 -37 43
-39 56 -29 320 235 259 258 272 276 236 312 -40 41 -57 28 -322 -237z"/>
<path d="M5348 4263 c-122 -122 -188 -195 -188 -209 0 -40 49 -74 78 -55 8 4
79 72 158 151 l145 142 -3 79 -3 79 -187 -187z"/>
<path d="M3607 4072 c-247 -248 -347 -354 -347 -370 0 -33 37 -65 67 -57 14 3
168 149 369 349 359 359 368 370 328 410 -41 42 -52 34 -417 -332z"/>
<path d="M2288 3953 c-253 -253 -308 -312 -308 -335 0 -28 31 -58 61 -58 9 0
154 138 322 307 254 253 307 312 307 334 0 29 -31 59 -59 59 -9 0 -154 -138
-323 -307z"/>
<path d="M516 3714 l-516 -516 0 -81 0 -82 555 555 c305 305 558 563 561 573
9 29 -22 67 -55 67 -25 0 -104 -75 -545 -516z"/>
<path d="M138 3953 l-138 -137 0 -80 0 -81 175 175 c154 154 175 179 175 207
0 34 -21 53 -57 53 -10 0 -80 -62 -155 -137z"/>
<path d="M4477 3942 c-155 -155 -169 -179 -129 -215 39 -35 59 -23 214 131
155 154 170 179 132 216 -37 38 -62 23 -217 -132z"/>
<path d="M4692 3597 c-128 -128 -232 -240 -232 -248 0 -28 30 -59 58 -59 23 0
70 43 260 233 128 128 232 240 232 248 0 28 -30 59 -58 59 -23 0 -70 -43 -260
-233z"/>
<path d="M5473 3608 c-49 -50 -63 -70 -63 -94 0 -16 5 -35 12 -42 19 -19 65
-14 93 11 25 21 26 26 23 105 l-3 83 -62 -63z"/>
<path d="M833 3208 c-108 -106 -126 -131 -116 -166 4 -18 41 -42 65 -42 6 0
62 50 125 112 119 117 134 146 97 182 -34 35 -62 20 -171 -86z"/>
<path d="M937 2612 c-457 -457 -677 -684 -677 -698 0 -40 49 -74 80 -54 8 5
317 311 687 681 470 470 673 680 673 695 0 27 -30 54 -61 54 -19 0 -178 -153
-702 -678z"/>
<path d="M3013 2247 c-866 -865 -963 -965 -963 -993 0 -18 7 -37 15 -44 45
-37 23 -57 1031 951 1018 1017 992 990 948 1033 -43 44 -16 69 -1031 -947z"/>
<path d="M5373 3034 c-158 -160 -172 -183 -137 -218 36 -36 63 -21 186 101
l118 118 0 77 c0 43 -3 78 -7 77 -5 0 -77 -70 -160 -155z"/>
<path d="M4037 2353 c-428 -428 -782 -785 -787 -793 -20 -31 13 -80 54 -80 25
0 1596 1566 1596 1590 0 9 -7 26 -16 38 -39 56 -17 75 -847 -755z"/>
<path d="M4102 2838 c-123 -123 -228 -231 -233 -241 -17 -29 10 -71 48 -75 29
-3 48 14 257 224 204 204 226 230 226 260 0 34 -20 54 -56 54 -10 0 -119 -100
-242 -222z"/>
<path d="M2137 2643 c-347 -347 -368 -370 -362 -398 3 -16 11 -33 18 -37 42
-26 56 -15 430 360 202 202 367 371 367 375 0 13 -22 51 -34 59 -32 22 -63 -5
-419 -359z"/>
<path d="M193 2648 l-193 -192 0 -86 0 -85 235 235 c165 165 235 242 235 258
0 28 -34 62 -62 62 -15 0 -82 -60 -215 -192z"/>
<path d="M2566 2604 c-130 -129 -145 -154 -110 -188 37 -38 64 -22 197 112 81
83 127 136 127 150 0 29 -26 52 -60 52 -22 0 -52 -25 -154 -126z"/>
<path d="M4618 2183 c-190 -192 -350 -357 -356 -368 -20 -40 25 -92 68 -77 8
2 174 163 368 356 370 369 378 379 336 420 -41 42 -52 34 -416 -331z"/>
<path d="M5388 2302 c-155 -156 -169 -179 -130 -215 37 -34 61 -22 174 91
l109 107 -3 83 -3 83 -147 -149z"/>
<path d="M1367 2292 c-69 -70 -80 -97 -51 -126 33 -33 67 -20 137 53 37 38 67
75 67 83 0 27 -31 58 -58 58 -21 0 -45 -17 -95 -68z"/>
<path d="M65 2069 l-65 -62 0 -86 0 -86 105 106 c62 62 105 114 105 126 0 28
-21 51 -52 58 -24 6 -36 -1 -93 -56z"/>
<path d="M1160 1045 l-1045 -1045 85 0 85 0 1003 1003 c732 732 1002 1008
1002 1025 0 28 -34 62 -62 62 -17 0 -303 -280 -1068 -1045z"/>
<path d="M3052 1827 c-232 -233 -242 -250 -174 -286 17 -9 27 -9 45 0 12 7
113 104 225 216 210 212 223 231 184 266 -42 38 -58 27 -280 -196z"/>
<path d="M467 1562 l-467 -467 0 -80 0 -80 505 505 c278 278 508 515 511 528
4 15 0 30 -11 42 -43 47 -43 48 -538 -448z"/>
<path d="M5108 1573 c-450 -450 -454 -455 -412 -497 41 -41 49 -34 456 372
l389 387 -3 83 -3 82 -427 -427z"/>
<path d="M4273 1278 c-481 -481 -543 -546 -543 -573 0 -39 16 -55 55 -55 27 0
92 62 573 543 570 570 569 569 526 611 -42 43 -41 44 -611 -526z"/>
<path d="M886 1391 c-317 -317 -379 -383 -379 -407 0 -30 25 -54 57 -54 14 0
146 125 399 378 309 309 377 382 377 404 0 28 -31 58 -60 58 -8 0 -186 -170
-394 -379z"/>
<path d="M3985 1641 c-16 -11 -59 -49 -94 -85 -52 -53 -64 -72 -64 -97 0 -35
23 -59 57 -59 28 0 196 170 196 198 0 24 -32 62 -52 62 -7 0 -26 -9 -43 -19z"/>
<path d="M2925 1310 c-27 -11 -253 -241 -255 -260 -4 -27 0 -38 16 -54 33 -33
56 -19 187 112 136 137 151 164 105 196 -25 18 -25 18 -53 6z"/>
<path d="M5270 1293 c-13 -9 -124 -117 -247 -241 -188 -188 -223 -228 -223
-252 0 -34 38 -65 67 -56 31 10 493 480 493 501 0 26 -10 39 -37 54 -27 14
-24 14 -53 -6z"/>
<path d="M2990 621 c-336 -335 -610 -612 -610 -615 0 -3 35 -6 78 -6 l77 0
573 573 c518 519 572 575 572 604 0 34 -21 53 -60 53 -14 0 -210 -189 -630
-609z"/>
<path d="M1664 1097 c-100 -98 -110 -121 -74 -157 35 -35 58 -25 156 72 81 79
94 96 94 124 0 23 -6 37 -19 44 -42 22 -62 11 -157 -83z"/>
<path d="M5173 728 c-300 -300 -363 -368 -363 -390 0 -32 39 -63 67 -54 10 3
163 151 341 329 l323 323 -3 77 -3 77 -362 -362z"/>
<path d="M1478 393 l-388 -388 78 -3 78 -3 343 343 c188 189 346 350 351 358
20 31 -13 80 -54 80 -13 0 -153 -132 -408 -387z"/>
<path d="M933 388 l-383 -383 77 -3 77 -3 343 343 c248 248 343 349 343 365 0
27 -33 63 -57 63 -10 0 -190 -172 -400 -382z"/>
<path d="M2431 671 c-18 -11 -671 -660 -671 -667 0 -2 35 -4 78 -4 l77 0 298
298 c210 211 297 304 297 320 0 24 -32 62 -52 62 -7 0 -19 -4 -27 -9z"/>
<path d="M4110 295 l-295 -295 80 0 80 0 258 258 c263 263 277 281 241 316
-41 41 -55 31 -364 -279z"/>
<path d="M0 458 l0 -61 25 23 c14 13 25 32 25 42 0 28 -18 58 -35 58 -12 0
-15 -14 -15 -62z"/>
<path d="M5245 260 l-260 -260 80 0 80 0 198 198 197 197 0 63 c0 52 -3 62
-18 62 -9 0 -134 -117 -277 -260z"/>
<path d="M3380 175 l-175 -175 80 0 80 0 138 138 c141 141 154 163 119 195
-41 37 -59 25 -242 -158z"/>
<path d="M4507 93 l-88 -88 77 -3 77 -3 49 48 c53 52 62 87 30 116 -33 30 -55
19 -145 -70z"/>
</g>
</svg>
