<?xml version="1.0" encoding="iso-8859-1"?>
<!-- Uploaded to: SVG Repo, www.svgrepo.com, Generator: SVG Repo Mixer Tools -->
<svg fill="#000000" height="800px" width="800px" version="1.1" id="Layer_1" xmlns="http://www.w3.org/2000/svg" xmlns:xlink="http://www.w3.org/1999/xlink" 
	 viewBox="0 0 503.607 503.607" xml:space="preserve">
<g>
	<g>
		<path d="M323.147,0c-87.199,0-160.558,61.213-176.85,146.315C61.213,162.589,0,235.948,0,323.148
			c0,99.513,80.955,180.459,180.459,180.459c87.208,0,160.567-61.205,176.841-146.298c85.101-16.283,146.306-89.642,146.306-176.85
			C503.607,80.955,422.66,0,323.147,0z M180.459,444.852c-67.106,0-121.705-54.591-121.705-121.705
			c0-53.265,35.723-100.721,86.117-116.232c11.549,78.554,73.275,140.28,151.829,151.829
			C281.189,409.147,233.732,444.852,180.459,444.852z M206.915,144.871c15.503-50.403,62.968-86.117,116.232-86.117
			c67.114,0,121.705,54.599,121.705,121.705c0,53.273-35.714,100.73-86.108,116.241C347.195,218.146,285.469,156.42,206.915,144.871
			z M299.931,299.931c-48.472-9.417-86.839-47.784-96.248-96.248C252.147,213.101,290.522,251.459,299.931,299.931z
			 M360.037,339.758c0.076-0.697,0.101-1.351,0.168-2.04c0.059-0.797,0.109-1.586,0.176-2.359c0.327-4.197,0.537-8.293,0.537-12.212
			c0-2.829-0.101-5.817-0.277-8.931c-0.008-0.176-0.008-0.336-0.017-0.52c58.956-16.644,101.015-71.537,101.015-133.237
			c0-76.355-62.128-138.492-138.492-138.492c-64.126,0-120.916,45.459-135.017,108.074c-2.308,10.215-3.475,20.455-3.475,30.418
			c0,4.692,0.243,9.443,0.713,14.118c6.371,62.623,54.843,113.177,116.501,122.737c0.092,1.956,0.294,3.903,0.294,5.833
			c0,3.911-0.277,7.89-0.688,11.885c-0.109,1.116-0.269,2.249-0.411,3.383c-0.176,1.343-0.47,2.703-0.688,4.054
			c-74.811-10.399-133.195-71.042-140.128-146.927c-0.512-5.59-0.772-10.517-0.772-15.083c0-7.823,0.73-16.241,2.233-25.734v-0.05
			c12.682-79.897,80.569-137.887,161.439-137.887c90.246,0,163.672,73.434,163.672,163.672
			C486.82,257.544,434.151,322.82,360.037,339.758z"/>
	</g>
</g>
</svg>